<svg 
          width="207.93760681152344" 
          height="208.11801147460938" fill="none" 
          xmlns="http://www.w3.org/2000/svg">
          <path d="M 103.96880340576172 0 C 83.76545128598306 0.038385752000204734 64.00925691233164 5.951156500640954 47.10661115892961 17.01811036584052 C 30.20396540552759 28.085064231040086 16.884393073693595 43.828546592691794 8.770282214744825 62.330929409484284 C 0.6561713557960545 80.83331222627677 -1.9022703380143642 101.29602360556696 1.4065854108887375 121.22661449342829 C 4.715441159791839 141.15720538128963 13.748784113804058 159.69546647064547 27.40631103788282 174.58334398424748 L 27.40631103788282 174.58334398424748 C 37.160716175878264 185.15676515852027 48.999454650355325 193.59514288878802 62.17649241605204 199.3667379050138 C 75.35353018174877 205.13833292123957 89.58319833468506 208.1180114746094 103.96880340576172 208.11801147460938 C 118.35440847683837 208.1180114746094 132.58407662977467 205.13833292123957 145.7611143954714 199.3667379050138 C 158.93815216116812 193.59514288878802 170.7769080203323 185.15676515852027 180.53131315832775 174.58334398424748 L 180.53131315832775 174.58334398424748 C 194.1888400824065 159.69546647064547 203.22218086333282 141.15720538128963 206.53103661223594 121.22661449342829 C 209.83989236113905 101.29602360556696 207.28145097776945 80.83331222627677 199.16734011882068 62.330929409484284 C 191.0532292598719 43.828546592691794 177.73364140599585 28.085064231040086 160.83099565259383 17.01811036584052 C 143.9283498991918 5.951156500640954 124.17215552554038 0.038385752000204734 103.96880340576172 0 L 103.96880340576172 0 Z M 103.96880340576172 187.50000887834773 C 82.39031632629136 187.4672138075213 61.66584082552376 179.06539741675007 46.15630952358147 164.06250776855427 C 50.8650954526163 152.59933821726617 58.875407311848946 142.79477229351855 69.16936359917628 135.8946725502168 C 79.46331988650361 128.99457280691504 91.57618879976918 125.3104467918034 103.96880340576172 125.3104467918034 C 116.36141801175425 125.31044679180339 128.47429189207327 128.99457280691504 138.76824817940062 135.8946725502168 C 149.06220446672796 142.79477229351855 157.07250639185366 152.59933821726617 161.7812923208885 164.06250776855427 C 146.27176101894622 179.06539741675007 125.54729048523208 187.4672138075213 103.96880340576172 187.50000887834773 Z M 83.13547617014407 83.33333727926566 C 83.13547617014407 79.21289313654451 84.35732646302357 75.1849833465736 86.64652234946382 71.75895911495859 C 88.93571823590408 68.33293488334357 92.18944170924763 65.66266995403024 95.99623556490293 64.08584421343475 C 99.80302942055823 62.50901847283928 103.99191355331486 62.09644899439677 108.0331843077696 62.90030777271568 C 112.07445506222435 63.70416655103458 115.7865961262316 65.68835521097263 118.70018990357543 68.60194928440455 C 121.61378368091927 71.51554335783648 123.59797213921819 75.22768479908255 124.40183083584657 79.26895596422328 C 125.20568953247495 83.31022712936401 124.79312009595898 87.49911168780751 123.21629451560523 91.30590593032055 C 121.63946893525147 95.11270017283358 118.96920427729837 98.36642397683023 115.54318039384611 100.65562009590539 C 112.11715651039385 102.94481621498055 108.0892471297511 104.16667159908208 103.96880340576172 104.16667159908208 C 98.44345996465216 104.16667159908208 93.14442448204261 101.97173324526311 89.23741690794802 98.06472527412677 C 85.33040933385342 94.15771730299043 83.13547617014407 88.85868128187708 83.13547617014407 83.33333727926566 Z M 175.94797451064022 145.83334023871492 C 166.64100899905597 129.91416200239746 152.3167371041245 117.53154916283722 135.21880170976837 110.62500404613222 C 140.52263691822617 104.61101990075102 143.978474298319 97.19435399551647 145.17162449063545 89.26497325781835 C 146.36477468295192 81.33559252012024 145.2445482860336 73.23034330263104 141.94537425564988 65.92184617338798 C 138.64620022526617 58.61334904414491 133.30823577159128 52.41207250529059 126.57200603201686 48.06214301873718 C 119.83577629244243 43.712213532183775 111.98744873893976 41.398427857227155 103.96880340576172 41.39842785722713 C 95.95015807258368 41.398427857227134 88.10183548613448 43.712213532183775 81.36560574656005 48.06214301873718 C 74.62937600698562 52.41207250529059 69.29141155331072 58.61334904414491 65.99223752292703 65.92184617338798 C 62.693063492543324 73.23034330263104 61.57283709562498 81.33559252012024 62.76598728794145 89.26497325781835 C 63.959137480257915 97.19435399551647 67.41497486035074 104.61101990075102 72.71881006880852 110.62500404613222 C 55.62087467445238 117.53154916283722 41.29661023010114 129.91416200239746 31.989644718516878 145.83334023871492 C 24.572392833795774 133.1989853073804 20.65339435729984 118.81734496698792 20.635477078604016 104.16667159908208 C 20.63547707860403 82.0652955886364 29.41521718402162 60.869136603021104 45.04324748039996 45.241104718475746 C 60.671277776778304 29.61307283393039 81.86742964132351 20.833334319816444 103.96880340576172 20.833334319816416 C 126.07017717019993 20.833334319816434 147.26633896885207 29.61307283393039 162.8943692652304 45.241104718475746 C 178.52239956160875 60.869136603021104 187.30214215055304 82.0652955886364 187.30214215055307 104.16667159908208 C 187.28422487185725 118.81734496698792 183.36522639536133 133.1989853073804 175.94797451064022 145.83334023871492 L 175.94797451064022 145.83334023871492 Z" fill="rgb(255,181.19874894618988,94.56250101327896)"/>
        </svg>