<svg 
          width="207.9376220703125" 
          height="208.11801147460938" fill="none" 
          xmlns="http://www.w3.org/2000/svg">
          <path d="M 103.96881103515625 0 C 83.7654574328238 0.038385752000204734 64.0092616094317 5.951156500640954 47.10661461568692 17.01811036584052 C 30.203967621942137 28.085064231040086 16.884394312696948 43.828546592691794 8.770282858321945 62.330929409484284 C 0.6561714039469422 80.83331222627677 -1.9022704776059574 101.29602360556696 1.40658551410619 121.22661449342829 C 4.715441505818338 141.15720538128963 13.748785122711487 159.69546647064547 27.40631304900108 174.58334398424748 L 27.40631304900108 174.58334398424748 C 37.16071890279013 185.15676515852027 48.99945824601247 193.59514288878802 62.17649697866097 199.3667379050138 C 75.35353571130948 205.13833292123957 89.58320490844125 208.1180114746094 103.96881103515625 208.11801147460938 C 118.35441716187125 208.1180114746094 132.584086359003 205.13833292123957 145.7611250916515 199.3667379050138 C 158.9381638243 193.59514288878802 170.77692055221075 185.15676515852027 180.5313264059998 174.58334398424748 L 180.5313264059998 174.58334398424748 C 194.1888543322894 159.69546647064547 203.2221957760965 141.15720538128963 206.53105176780863 121.22661449342829 C 209.83990775952077 101.29602360556696 207.28146618840876 80.83331222627677 199.16735473403375 62.330929409484284 C 191.05324327965874 43.828546592691794 177.73365444837034 28.085064231040086 160.83100745462556 17.01811036584052 C 143.92836046088078 5.951156500640954 124.1721646374887 0.038385752000204734 103.96881103515625 0 L 103.96881103515625 0 Z M 103.96881103515625 187.50000887834773 C 82.39032237222253 187.4672138075213 61.66584535066027 179.06539741675007 46.15631291060415 164.06250776855427 C 50.86509918517711 152.59933821726617 58.875411632219055 142.79477229351855 69.16936867493311 135.8946725502168 C 79.46332571764717 128.99457280691504 91.57619551977413 125.3104467918034 103.96881103515625 125.3104467918034 C 116.36142655053837 125.31044679180339 128.47430131971916 128.99457280691504 138.76825836243322 135.8946725502168 C 149.06221540514727 142.79477229351855 157.07251791808156 152.59933821726617 161.78130419265452 164.06250776855427 C 146.2717717525984 179.06539741675007 125.54729969808997 187.4672138075213 103.96881103515625 187.50000887834773 Z M 83.13548227075624 83.33333727926566 C 83.13548227075624 79.21289313654451 84.35733265329704 75.1849833465736 86.64652870772208 71.75895911495859 C 88.93572476214713 68.33293488334357 92.18944847425405 65.66266995403024 95.99624260925788 64.08584421343475 C 99.8030367442617 62.50901847283928 103.99192118440524 62.09644899439677 108.0331922354148 62.90030777271568 C 112.07446328642436 63.70416655103458 115.78660462283436 65.68835521097263 118.7001986139823 68.60194928440455 C 121.61379260513023 71.51554335783648 123.59798120903201 75.22768479908255 124.40183996464881 79.26895596422328 C 125.20569872026562 83.31022712936401 124.79312925347466 87.49911168780751 123.21630355741095 91.30590593032055 C 121.63947786134725 95.11270017283358 118.96921300744593 98.36642397683023 115.54318887258664 100.65562009590539 C 112.11716473772735 102.94481621498055 108.08925506151029 104.16667159908208 103.96881103515625 104.16667159908208 C 98.4434671885883 104.16667159908208 93.14443131712714 101.97173324526311 89.23742345633019 98.06472527412677 C 85.33041559553324 94.15771730299043 83.13548227075624 88.85868128187708 83.13548227075624 83.33333727926566 Z M 175.94798742197966 145.83334023871492 C 166.6410212274356 129.91416200239746 152.31674828136659 117.53154916283722 135.218811632337 110.62500404613222 C 140.52264722999857 104.61101990075102 143.97848486368616 97.19435399551647 145.17163514355786 89.26497325781835 C 146.36478542342957 81.33559252012024 145.24455894430724 73.23034330263104 141.94538467182497 65.92184617338798 C 138.6462103993427 58.61334904414491 133.30824555395955 52.41207250529059 126.57201532006998 48.06214301873718 C 119.83578508618041 43.712213532183775 111.98745695675511 41.398427857227155 103.96881103515625 41.39842785722713 C 95.95016511355739 41.398427857227134 88.1018419511859 43.712213532183775 81.36561171729633 48.06214301873718 C 74.62938148340676 52.41207250529059 69.29141663802363 58.61334904414491 65.99224236554134 65.92184617338798 C 62.693068093059054 73.23034330263104 61.57284161393674 81.33559252012024 62.76599189380844 89.26497325781835 C 63.95914217368014 97.19435399551647 67.41497980736774 104.61101990075102 72.71881540502932 110.62500404613222 C 55.620878755999755 117.53154916283722 41.296613260511435 129.91416200239746 31.989647065967386 145.83334023871492 C 24.57239463695666 133.1989853073804 20.65339587287845 118.81734496698792 20.635478592867823 104.16667159908208 C 20.635478592867837 82.0652955886364 29.415219342556583 60.869136603021104 45.0432507857444 45.241104718475746 C 60.67128222893221 29.61307283393039 81.86743564888442 20.833334319816444 103.96881103515625 20.833334319816416 C 126.07018642142808 20.833334319816434 147.26634977548792 29.61307283393039 162.89438121867573 45.241104718475746 C 178.52241266186354 60.869136603021104 187.3021558950792 82.0652955886364 187.30215589507924 104.16667159908208 C 187.2842386150686 118.81734496698792 183.36523985099038 133.1989853073804 175.94798742197966 145.83334023871492 L 175.94798742197966 145.83334023871492 Z" fill="rgb(103.0000014603138,116.00000068545341,142.00000673532486)"/>
        </svg>